<svg xmlns="http://www.w3.org/2000/svg" width="16" height="16" viewBox="0 0 16 16" fill="none" role="img" aria-hidden="true" class="icon ">
<path d="M11.7948 7.41569C11.7259 7.38266 11.6559 7.35087 11.585 7.32043C11.4615 5.04485 10.218 3.74208 8.1302 3.72875C8.12074 3.72869 8.11133 3.72869 8.10187 3.72869C6.85307 3.72869 5.81447 4.26174 5.17521 5.23173L6.32346 6.0194C6.80101 5.29486 7.55047 5.1404 8.10242 5.1404C8.1088 5.1404 8.1152 5.1404 8.12151 5.14046C8.80896 5.14484 9.32771 5.34472 9.66346 5.7345C9.90779 6.01828 10.0712 6.41042 10.1521 6.90532C9.54262 6.80173 8.88346 6.76987 8.17879 6.81027C6.19377 6.92462 4.91763 8.08233 5.00334 9.691C5.04683 10.507 5.45335 11.209 6.14796 11.6676C6.73524 12.0553 7.49162 12.2448 8.27773 12.2019C9.31587 12.145 10.1303 11.7489 10.6985 11.0247C11.13 10.4747 11.4029 9.76192 11.5234 8.86383C12.0181 9.16242 12.3848 9.55533 12.5873 10.0277C12.9316 10.8306 12.9517 12.15 11.8751 13.2257C10.9319 14.168 9.79804 14.5757 8.0845 14.5883C6.18372 14.5742 4.74619 13.9646 3.81155 12.7764C2.93633 11.6638 2.48402 10.0568 2.46714 8C2.48402 5.94315 2.93633 4.33613 3.81155 3.22356C4.74619 2.03541 6.1837 1.42583 8.08447 1.41171C9.99904 1.42594 11.4616 2.03845 12.432 3.23233C12.9079 3.8178 13.2666 4.55407 13.5031 5.41253L14.8487 5.05352C14.562 3.99685 14.111 3.08631 13.4971 2.33117C12.253 0.800557 10.4335 0.0162623 8.08917 0H8.07978C5.74017 0.0162058 3.94105 0.803483 2.7324 2.33994C1.65687 3.7072 1.10207 5.60964 1.08343 7.99438L1.08337 8L1.08343 8.00563C1.10207 10.3903 1.65687 12.2928 2.7324 13.6601C3.94105 15.1965 5.74017 15.9838 8.07978 16H8.08917C10.1692 15.9856 11.6354 15.441 12.8432 14.2343C14.4235 12.6555 14.3759 10.6766 13.855 9.46175C13.4814 8.59058 12.769 7.88302 11.7948 7.41569ZM8.20342 10.7923C7.33342 10.8413 6.42957 10.4508 6.38501 9.61433C6.35197 8.99417 6.82636 8.30217 8.25681 8.21973C8.42062 8.21028 8.58137 8.20567 8.73929 8.20567C9.25887 8.20567 9.74496 8.25614 10.1869 8.35275C10.022 10.4113 9.05521 10.7455 8.20342 10.7923Z" fill="currentColor"></path>
</svg>