<svg xmlns="http://www.w3.org/2000/svg" width="26" height="26" viewBox="0 0 26 26" fill="none" role="img" aria-hidden="true" class="icon ">
<path d="M19.9818 11.1647V6.42118C19.9818 4.52359 19.9818 3.57479 19.5939 2.85001C19.2527 2.21247 18.7082 1.69414 18.0385 1.3693C17.2772 1 16.2805 1 14.2873 1H6.69454C4.70126 1 3.70463 1 2.9433 1.3693C2.27361 1.69414 1.72914 2.21247 1.38792 2.85001C1 3.57479 1 4.52359 1 6.42118V18.1671C1 20.0646 1 21.0134 1.38792 21.7382C1.72914 22.3758 2.27361 22.8941 2.9433 23.2189C3.70463 23.5882 4.70126 23.5882 6.69454 23.5882H10.4909M11.0841 11.1647H5.74545M6.93181 15.6824H5.74545M15.2363 6.64706H5.74545M14.7752 25V22.1765M14.8529 16.2471V13.4235M13.4033 14.8353H16.3025M13.3256 23.5882H16.2248M19.7815 13.9882L18.776 16.5344C18.6124 16.9485 18.5307 17.1555 18.4035 17.3296C18.2908 17.484 18.1524 17.6188 17.9939 17.7286C17.8151 17.8524 17.6025 17.932 17.1774 18.0913L14.563 19.0706L17.1774 20.0499C17.6025 20.2091 17.8151 20.2888 17.9939 20.4126C18.1524 20.5223 18.2908 20.6572 18.4035 20.8115C18.5307 20.9857 18.6124 21.1927 18.776 21.6068L19.7815 24.1529L20.787 21.6068C20.9505 21.1927 21.0323 20.9857 21.1594 20.8115C21.2721 20.6572 21.4106 20.5223 21.5691 20.4126C21.7479 20.2888 21.9605 20.2091 22.3856 20.0499L25 19.0706L22.3856 18.0913C21.9605 17.932 21.7479 17.8524 21.5691 17.7286C21.4106 17.6188 21.2721 17.484 21.1594 17.3297C21.0323 17.1555 20.9505 16.9485 20.787 16.5344L19.7815 13.9882Z" stroke="currentColor" stroke-width="1.5" stroke-linecap="round" stroke-linejoin="round"></path>
</svg>