<svg xmlns="http://www.w3.org/2000/svg" width="72" height="72" viewBox="0 0 72 72" fill="none" role="img" aria-hidden="true" class="icon verification-dialog__icon">
<path data-rotate="true" d="M26.3879 15.4262C27.91 11.2234 33.313 10.075 36.413 13.2953L36.5991 13.4886C38.3908 15.3499 41.1684 15.8647 43.5081 14.7691L43.751 14.6553C47.7993 12.7598 52.4318 15.7682 52.3467 20.2374L52.3416 20.5056C52.2924 23.0887 53.8924 25.4167 56.3216 26.2965L56.5738 26.3879C60.7766 27.9101 61.9251 33.313 58.7047 36.413L58.5114 36.5991C56.6502 38.3908 56.1354 41.1684 57.2309 43.5081L57.3447 43.7511C59.2402 47.7993 56.2318 52.4318 51.7626 52.3467L51.4944 52.3416C48.9113 52.2924 46.5833 53.8924 45.7035 56.3216L45.6121 56.5738C44.09 60.7766 38.687 61.9251 35.587 58.7047L35.401 58.5115C33.6092 56.6502 30.8316 56.1354 28.4919 57.2309L28.249 57.3447C24.2007 59.2402 19.5682 56.2318 19.6533 51.7626L19.6584 51.4944C19.7076 48.9113 18.1076 46.5833 15.6784 45.7035L15.4262 45.6122C11.2234 44.09 10.075 38.687 13.2953 35.587L13.4886 35.401C15.3499 33.6092 15.8646 30.8317 14.7691 28.4919L14.6553 28.249C12.7598 24.2008 15.7682 19.5682 20.2374 19.6533L20.5056 19.6584C23.0887 19.7076 25.4167 18.1076 26.2965 15.6784L26.3879 15.4262Z" fill="#D86AD4"></path>
<path d="M45.4386 41.7283L38.8387 35.7671M33.1614 35.7671L26.5615 41.7283M26.0647 30.7994L34.1768 36.4779C34.8337 36.9378 35.1622 37.1677 35.5194 37.2567C35.835 37.3354 36.1651 37.3354 36.4806 37.2567C36.8379 37.1677 37.1663 36.9378 37.8232 36.4779L45.9354 30.7994M30.8337 43.7154H41.1664C42.8357 43.7154 43.6703 43.7154 44.3079 43.3905C44.8688 43.1047 45.3247 42.6488 45.6105 42.0879C45.9354 41.4504 45.9354 40.6157 45.9354 38.9464V32.5878C45.9354 30.9185 45.9354 30.0839 45.6105 29.4463C45.3247 28.8854 44.8688 28.4295 44.3079 28.1437C43.6703 27.8188 42.8357 27.8188 41.1664 27.8188H30.8337C29.1644 27.8188 28.3297 27.8188 27.6921 28.1437C27.1313 28.4295 26.6753 28.8854 26.3896 29.4463C26.0647 30.0839 26.0647 30.9185 26.0647 32.5878V38.9464C26.0647 40.6157 26.0647 41.4504 26.3896 42.0879C26.6753 42.6488 27.1313 43.1047 27.6921 43.3905C28.3297 43.7154 29.1644 43.7154 30.8337 43.7154Z" stroke="white" stroke-width="2" stroke-linecap="round" stroke-linejoin="round"></path>
</svg>