<svg xmlns="http://www.w3.org/2000/svg" width="18" height="19" viewBox="0 0 18 19" fill="none" role="img" aria-hidden="true" class="icon ">
<path d="M15.8088 6.88889V5.28333C15.8088 3.69652 15.8088 2.90311 15.5011 2.29703C15.2304 1.7639 14.7984 1.33046 14.2672 1.05881C13.6632 0.75 12.8725 0.75 11.2912 0.75H5.26765C3.68632 0.75 2.89566 0.75 2.29167 1.05881C1.76039 1.33046 1.32845 1.7639 1.05775 2.29703C0.75 2.90311 0.75 3.69652 0.75 5.28333V13.2167C0.75 14.8035 0.75 15.5969 1.05775 16.203C1.32845 16.7361 1.76039 17.1695 2.29167 17.4412C2.89566 17.75 3.68632 17.75 5.26765 17.75H8.27941M13.9265 16.8056V11.1389M11.1029 13.9722H16.75" stroke="currentColor" stroke-width="1.5" stroke-linecap="round" stroke-linejoin="round"></path>
</svg>