<svg xmlns="http://www.w3.org/2000/svg" width="24" height="24" viewBox="0 0 24 24" fill="none" role="img" aria-hidden="true" class="icon ">
  <path d="M6.34314 4.22183C5.75736 3.63604 4.80761 3.63604 4.22182 4.22183C3.63604 4.80761 3.63604 5.75736 4.22182 6.34315L9.87868 12L4.22182 17.6569C3.63604 18.2426 3.63604 19.1924 4.22182 19.7782C4.80761 20.364 5.75736 20.364 6.34314 19.7782L12 14.1213L17.6569 19.7782C18.2426 20.364 19.1924 20.364 19.7782 19.7782C20.364 19.1924 20.364 18.2426 19.7782 17.6569L14.1213 12L19.7782 6.34315C20.364 5.75736 20.364 4.80761 19.7782 4.22183C19.1924 3.63604 18.2426 3.63604 17.6569 4.22183L12 9.87868L6.34314 4.22183Z" fill="currentColor"></path>
</svg>