<svg xmlns="http://www.w3.org/2000/svg" width="16" height="16" viewBox="0 0 16 16" fill="none" role="img" aria-hidden="true" class="icon ">
<path d="M15.5638 4.18665C15.382 3.50663 14.8464 2.97097 14.1663 2.7892C12.9338 2.45885 7.99102 2.45885 7.99102 2.45885C7.99102 2.45885 3.04823 2.45885 1.81569 2.7892C1.13567 2.97097 0.600013 3.50663 0.418241 4.18665C0.0878906 5.41918 0.0878906 7.99103 0.0878906 7.99103C0.0878906 7.99103 0.0878906 10.5629 0.418241 11.7954C0.600013 12.4754 1.13567 13.0111 1.81569 13.1929C3.04823 13.5232 7.99102 13.5232 7.99102 13.5232C7.99102 13.5232 12.9338 13.5232 14.1663 13.1929C14.8464 13.0111 15.382 12.4754 15.5638 11.7954C15.8941 10.5629 15.8941 7.99103 15.8941 7.99103C15.8941 7.99103 15.8941 5.41918 15.5638 4.18665ZM6.41039 10.362V5.6201L10.5169 7.99103L6.41039 10.362Z" fill="currentColor"></path>
</svg>