<svg xmlns="http://www.w3.org/2000/svg" width="11" height="9" viewBox="0 0 11 9" fill="none" role="img" aria-hidden="true" class="icon ">
  <path d="M10.9998 2.81212C10.9998 2.47893 10.9998 2.31233 10.934 2.23519C10.8768 2.16825 10.791 2.13273 10.7033 2.13964C10.6021 2.1476 10.4843 2.2654 10.2487 2.501L8.24988 4.49985L10.2487 6.49869C10.4843 6.73429 10.6021 6.85209 10.7033 6.86005C10.791 6.86696 10.8768 6.83144 10.934 6.7645C10.9998 6.68736 10.9998 6.52076 10.9998 6.18757V2.81212Z" fill="currentColor"></path>
  <path d="M0 3.28986C0 2.36579 0 1.90375 0.179837 1.5508C0.338025 1.24034 0.59044 0.987928 0.900902 0.829739C1.25385 0.649902 1.71589 0.649902 2.63996 0.649902H5.60992C6.53399 0.649902 6.99603 0.649902 7.34898 0.829739C7.65944 0.987928 7.91185 1.24034 8.07004 1.5508C8.24988 1.90375 8.24988 2.36579 8.24988 3.28986V5.70983C8.24988 6.6339 8.24988 7.09594 8.07004 7.44889C7.91185 7.75935 7.65944 8.01176 7.34898 8.16995C6.99603 8.34979 6.53399 8.34979 5.60992 8.34979H2.63996C1.71589 8.34979 1.25385 8.34979 0.900902 8.16995C0.59044 8.01176 0.338025 7.75935 0.179837 7.44889C0 7.09594 0 6.6339 0 5.70983V3.28986Z" fill="currentColor"></path>
</svg>