<svg xmlns="http://www.w3.org/2000/svg" width="16" height="16" viewBox="0 0 16 16" fill="none" role="img" aria-hidden="true" class="icon ">
<path d="M12.8809 3.70813C12.7796 3.6558 12.6811 3.59843 12.5856 3.53625C12.3078 3.35264 12.0532 3.1363 11.8271 2.89188C11.2615 2.24469 11.0503 1.58813 10.9724 1.12844H10.9756C10.9106 0.746875 10.9374 0.5 10.9415 0.5H8.36525V10.4619C8.36525 10.5956 8.36526 10.7278 8.35963 10.8584C8.35963 10.8747 8.35807 10.8897 8.35713 10.9072C8.35713 10.9144 8.35713 10.9219 8.35557 10.9294C8.35557 10.9312 8.35557 10.9331 8.35557 10.935C8.32841 11.2924 8.21383 11.6377 8.02191 11.9405C7.82999 12.2432 7.56661 12.4942 7.25494 12.6713C6.93011 12.856 6.56272 12.953 6.189 12.9525C4.98869 12.9525 4.01588 11.9738 4.01588 10.765C4.01588 9.55625 4.98869 8.5775 6.189 8.5775C6.41622 8.57729 6.64203 8.61304 6.85807 8.68344L6.86119 6.06031C6.20537 5.9756 5.5391 6.02772 4.90443 6.21339C4.26976 6.39906 3.68046 6.71424 3.17369 7.13906C2.72965 7.52488 2.35634 7.98522 2.07057 8.49938C1.96182 8.68688 1.5515 9.44031 1.50182 10.6631C1.47057 11.3572 1.679 12.0763 1.77838 12.3734V12.3797C1.84088 12.5547 2.08307 13.1519 2.47775 13.6553C2.79602 14.0591 3.17203 14.4139 3.59369 14.7081V14.7019L3.59994 14.7081C4.84713 15.5556 6.22994 15.5 6.22994 15.5C6.46932 15.4903 7.27119 15.5 8.18182 15.0684C9.19182 14.59 9.76682 13.8772 9.76682 13.8772C10.1342 13.4513 10.4263 12.9659 10.6306 12.4419C10.8637 11.8291 10.9415 11.0941 10.9415 10.8003V5.51531C10.9728 5.53406 11.389 5.80937 11.389 5.80937C11.389 5.80937 11.9887 6.19375 12.9243 6.44406C13.5956 6.62219 14.4999 6.65969 14.4999 6.65969V4.10219C14.1831 4.13656 13.5396 4.03656 12.8809 3.70813Z" fill="currentColor"></path>
</svg>